<svg width="14" height="15" viewBox="0 0 14 15" fill="none" xmlns="http://www.w3.org/2000/svg">
<path d="M14 2.25V9.25C14 9.71413 13.8156 10.1592 13.4874 10.4874C13.1592 10.8156 12.7141 11 12.25 11H7.875L1.75 14.5L2.625 11H1.75C1.28587 11 0.840752 10.8156 0.512563 10.4874C0.184375 10.1592 0 9.71413 0 9.25V2.25C0 1.78587 0.184375 1.34075 0.512563 1.01256C0.840752 0.684375 1.28587 0.5 1.75 0.5H12.25C12.7141 0.5 13.1592 0.684375 13.4874 1.01256C13.8156 1.34075 14 1.78587 14 2.25Z" fill="#656565"/>
</svg>
